<svg width="200" height="194" viewBox="0 0 200 194" fill="none" xmlns="http://www.w3.org/2000/svg">
<path d="M119.841 0H80.1587C59.1098 0 38.923 8.3596 24.0392 23.2398C9.15532 38.12 0.793674 58.3018 0.793674 79.3456C0.793674 100.389 9.15532 120.571 24.0392 135.451C38.923 150.332 59.1098 158.691 80.1587 158.691V193.405C129.762 173.569 199.206 143.814 199.206 79.3456C199.206 58.3018 190.845 38.12 175.961 23.2398C161.077 8.3596 140.89 0 119.841 0V0ZM100 138.855H80.1587C72.342 138.855 64.6017 137.316 57.38 134.325C50.1582 131.334 43.5964 126.951 38.0691 121.425C32.5418 115.899 28.1573 109.339 25.1659 102.119C22.1746 94.8988 20.6349 87.1605 20.6349 79.3456C20.6349 71.5307 22.1746 63.7924 25.1659 56.5724C28.1573 49.3524 32.5418 42.7922 38.0691 37.2662C43.5964 31.7403 50.1582 27.3569 57.38 24.3663C64.6017 21.3757 72.342 19.8364 80.1587 19.8364H119.841C135.628 19.8364 150.768 26.1061 161.931 37.2662C173.094 48.4264 179.365 63.5628 179.365 79.3456C179.365 115.15 154.94 138.518 100 163.452V138.855Z" fill="#536471"/>
</svg>
