<svg width="200" height="200" viewBox="0 0 200 200" fill="none" xmlns="http://www.w3.org/2000/svg">
<path d="M100 187.5C76.7936 187.5 54.5376 178.281 38.1282 161.872C21.7187 145.462 12.5 123.206 12.5 100C12.5 76.7936 21.7187 54.5376 38.1282 38.1282C54.5376 21.7187 76.7936 12.5 100 12.5C123.206 12.5 145.462 21.7187 161.872 38.1282C178.281 54.5376 187.5 76.7936 187.5 100C187.5 123.206 178.281 145.462 161.872 161.872C145.462 178.281 123.206 187.5 100 187.5ZM100 200C126.522 200 151.957 189.464 170.711 170.711C189.464 151.957 200 126.522 200 100C200 73.4784 189.464 48.043 170.711 29.2893C151.957 10.5357 126.522 0 100 0C73.4784 0 48.043 10.5357 29.2893 29.2893C10.5357 48.043 0 73.4784 0 100C0 126.522 10.5357 151.957 29.2893 170.711C48.043 189.464 73.4784 200 100 200V200Z" fill="#55ACEE"/>
<path d="M53.5625 119.588C54.998 118.759 56.7039 118.534 58.305 118.963C59.9061 119.392 61.2712 120.44 62.1 121.875C65.9389 128.529 71.4631 134.055 78.1166 137.895C84.7701 141.735 92.3178 143.755 100 143.75C107.682 143.755 115.23 141.735 121.883 137.895C128.537 134.055 134.061 128.529 137.9 121.875C138.307 121.158 138.852 120.53 139.504 120.025C140.155 119.52 140.9 119.148 141.696 118.932C142.491 118.716 143.321 118.66 144.139 118.766C144.956 118.872 145.744 119.139 146.458 119.551C147.172 119.964 147.797 120.513 148.298 121.168C148.799 121.822 149.165 122.57 149.376 123.367C149.586 124.163 149.637 124.994 149.526 125.811C149.414 126.627 149.142 127.414 148.725 128.125C143.789 136.679 136.687 143.783 128.133 148.72C119.58 153.657 109.876 156.254 100 156.25C90.1237 156.254 80.4204 153.657 71.8668 148.72C63.3131 143.783 56.211 136.679 51.275 128.125C50.4462 126.69 50.2216 124.984 50.6506 123.383C51.0796 121.781 52.127 120.416 53.5625 119.588ZM87.5 81.25C87.5 91.6 81.9 100 75 100C68.1 100 62.5 91.6 62.5 81.25C62.5 70.9 68.1 62.5 75 62.5C81.9 62.5 87.5 70.9 87.5 81.25ZM137.5 81.25C137.5 91.6 131.9 100 125 100C118.1 100 112.5 91.6 112.5 81.25C112.5 70.9 118.1 62.5 125 62.5C131.9 62.5 137.5 70.9 137.5 81.25Z" fill="#55ACEE"/>
</svg>
