<svg width="215" height="200" viewBox="0 0 215 200" fill="none" xmlns="http://www.w3.org/2000/svg">
<g clip-path="url(#clip0_4_33)">
<path d="M180.354 0.246477C184.96 0.246477 189.522 1.23314 193.778 3.15014C198.033 5.06713 201.9 7.87691 205.158 11.419C208.415 14.9612 210.999 19.1663 212.762 23.7944C214.524 28.4224 215.432 33.3827 215.432 38.392V161.667C215.432 166.676 214.524 171.636 212.762 176.264C210.999 180.892 208.415 185.097 205.158 188.64C201.9 192.182 198.033 194.992 193.778 196.909C189.522 198.826 184.96 199.812 180.354 199.812H34.6461C25.3429 199.812 16.4207 195.793 9.84235 188.64C3.26398 181.486 -0.431702 171.783 -0.431702 161.667V38.3803C-0.431702 28.2635 3.26398 18.561 9.84235 11.4073C16.4207 4.25363 25.3429 0.234741 34.6461 0.234741H180.354V0.246477ZM180.354 17.8521H34.6461C29.6367 17.8521 24.8324 20.0161 21.2902 23.8681C17.748 27.7201 15.7581 32.9445 15.7581 38.392V161.667C15.7581 173.005 24.2199 182.207 34.6461 182.207H180.354C185.363 182.207 190.168 180.043 193.71 176.191C197.252 172.339 199.242 167.114 199.242 161.667V38.3803C199.242 32.9328 197.252 27.7084 193.71 23.8564C190.168 20.0044 185.363 17.8404 180.354 17.8404V17.8521ZM64.4892 63.2864C70.922 63.2864 75.4875 64.2488 80.7006 66.9718C81.4993 67.3888 82.2146 67.9727 82.8058 68.6903C83.397 69.4078 83.8524 70.245 84.1461 71.154C84.4397 72.0629 84.5658 73.0259 84.5173 73.9879C84.4687 74.9499 84.2464 75.892 83.863 76.7606C83.4796 77.6291 82.9426 78.407 82.2828 79.0499C81.6229 79.6928 80.853 80.188 80.0172 80.5074C79.1813 80.8267 78.2958 80.9639 77.4112 80.9111C76.5266 80.8582 75.6602 80.6165 74.8615 80.1995C71.6235 78.5094 69.0332 77.9695 64.4892 77.9695C55.1316 77.9695 48.2563 87.3122 48.2563 99.9413C48.2563 112.582 55.1423 121.96 64.4892 121.96C69.1087 121.96 73.0266 119.847 75.0665 116.08L75.1205 115.904V107.289H71.0623C69.4472 107.289 67.8858 106.658 66.6618 105.513C65.4378 104.367 64.6324 102.781 64.3921 101.045L64.3273 99.9648C64.3273 96.2793 66.8206 93.2277 70.0801 92.6995L71.0731 92.6291H81.8878C85.2769 92.6291 88.0723 95.3286 88.558 98.8732L88.6336 99.9648L88.612 118.122L88.5472 118.779L88.3206 119.836L88.1047 120.481C84.0357 130.927 74.7104 136.631 64.4892 136.631C46.9395 136.631 34.7648 120.047 34.7648 99.9413C34.7648 79.8357 46.9287 63.2864 64.4892 63.2864V63.2864ZM114.289 64.7183C117.678 64.7183 120.484 67.4413 120.959 70.9742L121.035 72.054V127.958C121.031 129.807 120.386 131.587 119.227 132.94C118.069 134.294 116.483 135.122 114.787 135.259C113.091 135.395 111.41 134.83 110.081 133.676C108.752 132.523 107.873 130.866 107.619 129.038L107.543 127.958V72.054C107.543 68.0047 110.565 64.7183 114.289 64.7183ZM146.625 64.7183L168.179 64.8005C169.889 64.7957 171.537 65.497 172.789 66.7626C174.041 68.0283 174.805 69.7639 174.926 71.6185C175.046 73.4731 174.515 75.3083 173.439 76.7531C172.363 78.1979 170.822 79.1444 169.129 79.4014L168.136 79.4718L153.339 79.4131V100H165.459C168.848 100 171.655 102.723 172.13 106.268L172.205 107.347C172.205 109.105 171.624 110.805 170.568 112.136C169.512 113.467 168.051 114.342 166.452 114.601L165.459 114.683L153.339 114.671V127.758C153.341 129.517 152.763 131.217 151.709 132.551C150.655 133.884 149.196 134.762 147.597 135.023L146.604 135.094C144.987 135.097 143.423 134.468 142.196 133.322C140.97 132.175 140.163 130.589 139.923 128.85L139.858 127.758V72.0305C139.864 70.2748 140.449 68.5796 141.507 67.2529C142.564 65.9263 144.024 65.0561 145.622 64.8005L146.625 64.7183V64.7183Z" fill="#55ACEE"/>
</g>
<defs>
<clipPath id="clip0_4_33">
<rect width="215" height="200" fill="white"/>
</clipPath>
</defs>
</svg>
