<svg width="200" height="200" viewBox="0 0 200 200" fill="none" xmlns="http://www.w3.org/2000/svg">
<g clip-path="url(#clip0_3_11)">
<path d="M10.169 110.177H20.1812V179.907C20.1812 190.895 29.1621 199.83 40.2056 199.83H160.352C171.395 199.83 180.376 190.895 180.376 179.907V110.177H190.388C192.368 110.177 194.304 109.592 195.95 108.498C197.596 107.403 198.879 105.847 199.636 104.027C200.394 102.207 200.592 100.205 200.206 98.2728C199.82 96.3407 198.867 94.5659 197.467 93.1728L107.357 3.51966C106.428 2.59379 105.325 1.85925 104.11 1.35808C102.896 0.856916 101.594 0.598953 100.279 0.598953C98.9637 0.598953 97.6617 0.856916 96.4471 1.35808C95.2324 1.85925 94.1291 2.59379 93.2001 3.51966L3.0904 93.1728C1.6906 94.5659 0.73738 96.3407 0.351235 98.2728C-0.0349106 100.205 0.163361 102.207 0.920983 104.027C1.67861 105.847 2.96156 107.403 4.60766 108.498C6.25377 109.592 8.1891 110.177 10.169 110.177ZM100.279 24.6479L160.352 84.4167V130.1L160.362 179.907H40.2056V84.4266L100.279 24.6479V24.6479Z" fill="#0D051B"/>
<path d="M100.279 150.023C122.366 150.023 140.327 132.152 140.327 110.177C140.327 88.202 122.366 70.3312 100.279 70.3312C78.1918 70.3312 60.2299 88.202 60.2299 110.177C60.2299 132.152 78.1918 150.023 100.279 150.023ZM100.279 90.2541C111.322 90.2541 120.303 99.1895 120.303 110.177C120.303 121.165 111.322 130.1 100.279 130.1C89.2352 130.1 80.2543 121.165 80.2543 110.177C80.2543 99.1895 89.2352 90.2541 100.279 90.2541Z" fill="#0D051B"/>
</g>
<defs>
<clipPath id="clip0_3_11">
<rect width="200" height="200" fill="white"/>
</clipPath>
</defs>
</svg>
