<svg width="164" height="201" viewBox="0 0 164 201" fill="none" xmlns="http://www.w3.org/2000/svg">
<path d="M82.0001 109.603C97.0959 109.603 109.333 97.3763 109.333 82.2935C109.333 67.2107 97.0959 54.9837 82.0001 54.9837C66.9043 54.9837 54.6667 67.2107 54.6667 82.2935C54.6667 97.3763 66.9043 109.603 82.0001 109.603Z" stroke="#55ACEE" stroke-width="16.6667" stroke-linecap="round" stroke-linejoin="round"/>
<path d="M82.0001 9.46741C62.6688 9.46741 44.1292 17.1401 30.4599 30.7977C16.7905 44.4552 9.11121 62.9788 9.11121 82.2935C9.11121 99.5169 12.7739 110.787 22.7779 123.258L82.0001 191.533L141.222 123.258C151.226 110.787 154.889 99.5169 154.889 82.2935C154.889 62.9788 147.21 44.4552 133.54 30.7977C119.871 17.1401 101.331 9.46741 82.0001 9.46741V9.46741Z" stroke="#55ACEE" stroke-width="16.6667" stroke-linecap="round" stroke-linejoin="round"/>
</svg>
