<svg width="200" height="200" viewBox="0 0 200 200" fill="none" xmlns="http://www.w3.org/2000/svg">
<path d="M125 83.3333C129.945 83.3333 134.778 81.8671 138.889 79.1201C143 76.373 146.205 72.4686 148.097 67.9004C149.989 63.3323 150.484 58.3056 149.52 53.4561C148.555 48.6065 146.174 44.152 142.678 40.6557C139.181 37.1593 134.727 34.7783 129.877 33.8137C125.028 32.8491 120.001 33.3441 115.433 35.2363C110.865 37.1285 106.96 40.3328 104.213 44.4441C101.466 48.5553 100 53.3888 100 58.3333C100 64.9637 102.634 71.3226 107.322 76.011C112.011 80.6994 118.37 83.3333 125 83.3333V83.3333ZM125 50C126.648 50 128.259 50.4887 129.63 51.4044C131 52.3201 132.068 53.6216 132.699 55.1443C133.33 56.667 133.495 58.3426 133.173 59.9591C132.852 61.5756 132.058 63.0604 130.893 64.2259C129.727 65.3913 128.242 66.185 126.626 66.5065C125.009 66.8281 123.334 66.6631 121.811 66.0323C120.288 65.4016 118.987 64.3335 118.071 62.9631C117.155 61.5927 116.667 59.9815 116.667 58.3333C116.667 56.1232 117.545 54.0036 119.107 52.4408C120.67 50.878 122.79 50 125 50Z" fill="#55ACEE"/>
<path d="M183.333 0H16.6667C12.2464 0 8.00716 1.75595 4.88155 4.88155C1.75595 8.00716 0 12.2464 0 16.6667V183.333C0 187.754 1.75595 191.993 4.88155 195.118C8.00716 198.244 12.2464 200 16.6667 200H183.333C187.754 200 191.993 198.244 195.118 195.118C198.244 191.993 200 187.754 200 183.333V16.6667C200 12.2464 198.244 8.00716 195.118 4.88155C191.993 1.75595 187.754 0 183.333 0V0ZM183.333 183.333H16.6667V133.333L58.3333 91.6667L104.917 138.25C108.039 141.354 112.264 143.097 116.667 143.097C121.07 143.097 125.294 141.354 128.417 138.25L141.667 125L183.333 166.667V183.333ZM183.333 143.083L153.417 113.167C150.294 110.062 146.07 108.32 141.667 108.32C137.264 108.32 133.039 110.062 129.917 113.167L116.667 126.417L70.0833 79.8333C66.9606 76.7291 62.7364 74.9868 58.3333 74.9868C53.9302 74.9868 49.706 76.7291 46.5833 79.8333L16.6667 109.75V16.6667H183.333V143.083Z" fill="#55ACEE"/>
</svg>
