<svg width="200" height="200" viewBox="0 0 200 200" fill="none" xmlns="http://www.w3.org/2000/svg">
<g clip-path="url(#clip0_4_22)">
<path d="M100 -0.401596C113.185 -0.401596 126.241 2.19537 138.422 7.24102C150.603 12.2867 161.671 19.6822 170.995 29.0054C180.318 38.3285 187.713 49.3967 192.759 61.578C197.805 73.7593 200.402 86.8151 200.402 100C200.402 126.628 189.824 152.166 170.995 170.995C152.166 189.824 126.628 200.402 100 200.402C86.8151 200.402 73.7592 197.805 61.578 192.759C49.3967 187.713 38.3285 180.318 29.0053 170.995C10.1764 152.166 -0.401611 126.628 -0.401611 100C-0.401611 73.3718 10.1764 47.8343 29.0053 29.0054C47.8343 10.1764 73.3718 -0.401596 100 -0.401596M100 19.6787C78.6975 19.6787 58.2674 28.1411 43.2043 43.2043C28.1411 58.2674 19.6787 78.6975 19.6787 100C19.6787 121.303 28.1411 141.733 43.2043 156.796C58.2674 171.859 78.6975 180.321 100 180.321C121.303 180.321 141.733 171.859 156.796 156.796C171.859 141.733 180.321 121.303 180.321 100C180.321 78.6975 171.859 58.2674 156.796 43.2043C141.733 28.1411 121.303 19.6787 100 19.6787M100 84.9398C103.994 84.9398 107.825 86.5265 110.649 89.3508C113.474 92.1751 115.06 96.0058 115.06 100C115.06 103.994 113.474 107.825 110.649 110.649C107.825 113.474 103.994 115.06 100 115.06C96.0058 115.06 92.1751 113.474 89.3508 110.649C86.5264 107.825 84.9398 103.994 84.9398 100C84.9398 96.0058 86.5264 92.1751 89.3508 89.3508C92.1751 86.5265 96.0058 84.9398 100 84.9398ZM54.8193 84.9398C58.8135 84.9398 62.6441 86.5265 65.4685 89.3508C68.2928 92.1751 69.8795 96.0058 69.8795 100C69.8795 103.994 68.2928 107.825 65.4685 110.649C62.6441 113.474 58.8135 115.06 54.8193 115.06C50.825 115.06 46.9944 113.474 44.1701 110.649C41.3457 107.825 39.759 103.994 39.759 100C39.759 96.0058 41.3457 92.1751 44.1701 89.3508C46.9944 86.5265 50.825 84.9398 54.8193 84.9398M145.181 84.9398C149.175 84.9398 153.006 86.5265 155.83 89.3508C158.654 92.1751 160.241 96.0058 160.241 100C160.241 103.994 158.654 107.825 155.83 110.649C153.006 113.474 149.175 115.06 145.181 115.06C141.186 115.06 137.356 113.474 134.532 110.649C131.707 107.825 130.12 103.994 130.12 100C130.12 96.0058 131.707 92.1751 134.532 89.3508C137.356 86.5265 141.186 84.9398 145.181 84.9398Z" fill="#0D051B"/>
</g>
<defs>
<clipPath id="clip0_4_22">
<rect width="200" height="200" fill="white"/>
</clipPath>
</defs>
</svg>
