<svg width="156" height="202" viewBox="0 0 156 202" fill="none" xmlns="http://www.w3.org/2000/svg">
<g clip-path="url(#clip0_4_20)">
<path d="M78 89.7778C86.866 89.7778 95.533 87.1451 102.905 82.2126C110.277 77.2802 116.022 70.2695 119.415 62.0671C122.808 53.8648 123.696 44.8391 121.966 36.1315C120.237 27.4239 115.967 19.4255 109.698 13.1477C103.429 6.86983 95.4411 2.59458 86.7454 0.862532C78.0497 -0.869515 69.0364 0.0194342 60.8452 3.41697C52.654 6.8145 45.6529 12.568 40.7272 19.95C35.8015 27.3319 33.1724 36.0107 33.1724 44.8889C33.1724 56.7942 37.8953 68.2118 46.3021 76.6301C54.7089 85.0484 66.111 89.7778 78 89.7778ZM78 22.4444C82.433 22.4444 86.7665 23.7608 90.4524 26.227C94.1383 28.6932 97.0112 32.1986 98.7076 36.2998C100.404 40.401 100.848 44.9138 99.9831 49.2676C99.1182 53.6214 96.9835 57.6206 93.8489 60.7595C90.7143 63.8984 86.7205 66.0361 82.3727 66.9021C78.0248 67.7681 73.5182 67.3236 69.4226 65.6249C65.327 63.9261 61.8264 61.0493 59.3636 57.3584C56.9007 53.6674 55.5862 49.328 55.5862 44.8889C55.5862 38.9363 57.9476 33.2274 62.151 29.0183C66.3544 24.8091 72.0555 22.4444 78 22.4444ZM78 112.222C57.1942 112.222 37.2406 120.499 22.5287 135.231C7.81676 149.963 -0.448303 169.944 -0.448303 190.778C-0.448303 193.754 0.732422 196.609 2.83412 198.713C4.93582 200.818 7.78634 202 10.7586 202C13.7308 202 16.5814 200.818 18.6831 198.713C20.7848 196.609 21.9655 193.754 21.9655 190.778C21.9655 175.896 27.8691 161.624 38.3776 151.101C48.8861 140.578 63.1387 134.667 78 134.667C92.8612 134.667 107.114 140.578 117.622 151.101C128.131 161.624 134.034 175.896 134.034 190.778C134.034 193.754 135.215 196.609 137.317 198.713C139.419 200.818 142.269 202 145.241 202C148.214 202 151.064 200.818 153.166 198.713C155.268 196.609 156.448 193.754 156.448 190.778C156.448 169.944 148.183 149.963 133.471 135.231C118.759 120.499 98.8057 112.222 78 112.222V112.222Z" fill="#0D051B"/>
</g>
<defs>
<clipPath id="clip0_4_20">
<rect width="156" height="202" fill="white"/>
</clipPath>
</defs>
</svg>
