<svg width="200" height="200" viewBox="0 0 200 200" fill="none" xmlns="http://www.w3.org/2000/svg">
<path d="M93.5133 180.682H29.1667C24.1436 180.682 19.3263 178.686 15.7745 175.135C12.2227 171.583 10.2273 166.765 10.2273 161.742V48.1061C10.2273 43.083 12.2227 38.2657 15.7745 34.7139C19.3263 31.1621 24.1436 29.1667 29.1667 29.1667H142.803C147.826 29.1667 152.643 31.1621 156.195 34.7139C159.747 38.2657 161.742 43.083 161.742 48.1061V85.9849" stroke="#55ACEE" stroke-width="16.6667" stroke-linecap="round" stroke-linejoin="round"/>
<path d="M152.273 190.152C173.193 190.152 190.151 173.193 190.151 152.273C190.151 131.353 173.193 114.394 152.273 114.394C131.353 114.394 114.394 131.353 114.394 152.273C114.394 173.193 131.353 190.152 152.273 190.152Z" stroke="#55ACEE" stroke-width="16.6667" stroke-linecap="round" stroke-linejoin="round"/>
<path d="M123.864 10.2273V48.1061M48.1061 10.2273V48.1061M10.2273 85.9849H161.742M152.273 138.03V152.273L161.742 161.742" stroke="#55ACEE" stroke-width="16.6667" stroke-linecap="round" stroke-linejoin="round"/>
</svg>
