<svg width="200" height="200" viewBox="0 0 200 200" fill="none" xmlns="http://www.w3.org/2000/svg">
<path d="M81.8898 163.78C36.5354 163.78 0 127.244 0 81.8898C0 36.5354 36.5354 0 81.8898 0C127.244 0 163.78 36.5354 163.78 81.8898C163.78 127.244 127.244 163.78 81.8898 163.78ZM81.8898 12.5984C43.4646 12.5984 12.5984 43.4646 12.5984 81.8898C12.5984 120.315 43.4646 151.181 81.8898 151.181C120.315 151.181 151.181 120.315 151.181 81.8898C151.181 43.4646 120.315 12.5984 81.8898 12.5984Z" fill="#0D051B"/>
<path d="M142.879 133.965L199.446 190.532L190.539 199.439L133.972 142.872L142.879 133.965Z" fill="#0D051B"/>
</svg>
