<svg width="200" height="200" viewBox="0 0 200 200" fill="none" xmlns="http://www.w3.org/2000/svg">
<path fill-rule="evenodd" clip-rule="evenodd" d="M100 185.281C147.1 185.281 185.281 147.1 185.281 100C185.281 52.9004 147.1 14.7186 100 14.7186C52.9004 14.7186 14.7186 52.9004 14.7186 100C14.7186 147.1 52.9004 185.281 100 185.281ZM100 200C155.228 200 200 155.228 200 100C200 44.7715 155.228 0 100 0C44.7715 0 0 44.7715 0 100C0 155.228 44.7715 200 100 200Z" fill="#55ACEE"/>
<g clip-path="url(#clip0_6_61)">
<path d="M70.7259 111.172C69.3978 114.729 68.2749 118.012 67.2718 121.335C72.7436 117.362 79.2471 114.843 86.7539 113.902C101.078 112.113 113.805 102.656 120.246 90.7723L111.947 82.479L120.001 74.4137L125.701 68.7081C128.152 66.2572 130.916 61.7315 133.84 55.2109C101.961 60.1527 82.4391 79.6747 70.7202 111.172H70.7259ZM128.066 82.4733L133.766 88.1674C128.066 105.267 110.967 122.367 88.1674 125.217C72.9545 127.12 63.4528 137.568 59.6567 156.566H48.2684C53.9683 122.367 65.368 42.5686 150.866 42.5686C145.166 59.6511 139.478 71.0451 133.783 76.7506L128.066 82.4733Z" fill="#55ACEE"/>
<path fill-rule="evenodd" clip-rule="evenodd" d="M61.039 38.9611C62.2345 38.9611 63.2035 39.9302 63.2035 41.1256V58.8745H80.9525C82.1479 58.8745 83.117 59.8436 83.117 61.039C83.117 62.2345 82.1479 63.2035 80.9525 63.2035H63.2035V80.9525C63.2035 82.1479 62.2345 83.117 61.039 83.117C59.8436 83.117 58.8745 82.1479 58.8745 80.9525V63.2035H41.1256C39.9302 63.2035 38.9611 62.2345 38.9611 61.039C38.9611 59.8436 39.9302 58.8745 41.1256 58.8745H58.8745V41.1256C58.8745 39.9302 59.8436 38.9611 61.039 38.9611Z" fill="#55ACEE"/>
</g>
<defs>
<clipPath id="clip0_6_61">
<rect width="136.797" height="136.797" fill="white" transform="translate(31.1689 31.1689)"/>
</clipPath>
</defs>
</svg>
