<svg width="245" height="200" viewBox="0 0 245 200" fill="none" xmlns="http://www.w3.org/2000/svg">
<g clip-path="url(#clip0_6_62)">
<path d="M244.978 24.3541C235.805 28.418 226.074 31.0855 216.111 32.268C226.489 26.0479 234.457 16.1981 238.21 4.46222C228.344 10.3166 217.55 14.4414 206.295 16.6584C197.126 6.89093 184.065 0.786621 169.609 0.786621C141.852 0.786621 119.347 23.29 119.347 51.045C119.347 54.9847 119.792 58.8201 120.649 62.4995C78.8785 60.4029 41.845 40.3943 17.0555 9.98662C12.7302 17.4096 10.2517 26.044 10.2517 35.2536C10.2517 52.6909 19.1254 68.0737 32.6106 77.0871C24.6292 76.8371 16.8235 74.6815 9.84502 70.8C9.84214 71.0105 9.84214 71.2211 9.84214 71.4326C9.84214 95.7838 27.1665 116.098 50.1579 120.715C42.7568 122.728 34.9936 123.022 27.4613 121.576C33.8565 141.544 52.4182 156.074 74.4106 156.48C57.2096 169.96 35.5378 177.995 11.9914 177.995C7.93401 177.995 3.93401 177.757 0.00195312 177.293C22.2441 191.553 48.6622 199.874 77.045 199.874C169.492 199.874 220.044 123.289 220.044 56.8737C220.044 54.6938 219.996 52.5263 219.899 50.3713C229.738 43.2582 238.231 34.448 244.978 24.3541" fill="#55ACEE"/>
</g>
<defs>
<clipPath id="clip0_6_62">
<rect width="244.98" height="200" fill="white"/>
</clipPath>
</defs>
</svg>
