<svg width="155" height="200" viewBox="0 0 155 200" fill="none" xmlns="http://www.w3.org/2000/svg">
<path d="M77.5 88.8889C86.2589 88.8889 94.8211 86.2823 102.104 81.3987C109.387 76.515 115.063 69.5738 118.415 61.4526C121.767 53.3315 122.644 44.3952 120.935 35.7738C119.226 27.1524 115.008 19.2332 108.815 13.0175C102.621 6.80182 94.7303 2.56891 86.1397 0.854007C77.5491 -0.860891 68.6447 0.0192569 60.5526 3.38315C52.4604 6.74705 45.544 12.4436 40.6778 19.7524C35.8116 27.0613 33.2143 35.6542 33.2143 44.4445C33.2143 56.2319 37.8801 67.5365 46.1853 75.8714C54.4904 84.2064 65.7547 88.8889 77.5 88.8889ZM143.929 200C146.865 200 149.681 198.829 151.757 196.746C153.834 194.662 155 191.836 155 188.889C155 168.261 146.835 148.478 132.301 133.892C117.767 119.306 98.0543 111.111 77.5 111.111C56.9457 111.111 37.2333 119.306 22.6992 133.892C8.16515 148.478 3.06283e-07 168.261 0 188.889C0 191.836 1.16645 194.662 3.24275 196.746C5.31904 198.829 8.1351 200 11.0714 200H143.929Z" fill="#0D051B"/>
</svg>
